<svg width="50" height="50" viewBox="0 0 50 50" fill="none" xmlns="http://www.w3.org/2000/svg">
<g clip-path="url(#clip0_82_1736)">
<path d="M14.0896 20.9083C14.0896 21.525 14.1563 22.0229 14.2729 22.3875C14.4063 22.7542 14.5729 23.1542 14.8063 23.5875C14.8896 23.7187 14.9229 23.8521 14.9229 23.9687C14.9229 24.1354 14.8229 24.3021 14.6063 24.4687L13.5583 25.1667C13.4317 25.258 13.281 25.3101 13.125 25.3167C12.9583 25.3167 12.7917 25.2333 12.6271 25.0833C12.4033 24.8426 12.2031 24.581 12.0292 24.3021C11.8429 23.9826 11.6706 23.6552 11.5125 23.3208C10.2167 24.85 8.58542 25.6146 6.62292 25.6146C5.22709 25.6146 4.11251 25.2167 3.29792 24.4187C2.48334 23.6187 2.06876 22.5562 2.06876 21.225C2.06876 19.8125 2.56667 18.6625 3.58126 17.8C4.59584 16.9354 5.94167 16.5021 7.65417 16.5021C8.22084 16.5021 8.80209 16.5521 9.41667 16.6354C10.0333 16.7187 10.6667 16.8521 11.3292 17.0021V15.7875C11.3292 14.5229 11.0646 13.6417 10.5479 13.1271C10.0167 12.6104 9.11876 12.3625 7.83959 12.3625C7.25626 12.3625 6.65626 12.4271 6.04167 12.5771C5.42709 12.7271 4.82709 12.9104 4.24584 13.1437C4.05632 13.2286 3.86146 13.301 3.66251 13.3604C3.57682 13.388 3.48785 13.4041 3.39792 13.4083C3.16459 13.4083 3.04792 13.2417 3.04792 12.8937V12.0792C3.04792 11.8125 3.08126 11.6125 3.16459 11.4958C3.29044 11.3446 3.45037 11.2253 3.63126 11.1479C4.21251 10.8479 4.91042 10.5979 5.72501 10.3979C6.57296 10.1808 7.44558 10.0751 8.32084 10.0833C10.3 10.0833 11.7458 10.5333 12.6771 11.4312C13.5917 12.3271 14.0563 13.6917 14.0563 15.5208V20.9083H14.0896ZM7.33959 23.4375C7.88751 23.4375 8.45209 23.3375 9.05209 23.1375C9.65001 22.9375 10.1833 22.5729 10.6313 22.075C10.8979 21.7583 11.0979 21.4083 11.1979 21.0083C11.2958 20.6104 11.3646 20.1271 11.3646 19.5625V18.8646C10.8599 18.7415 10.3487 18.6469 9.83334 18.5812C9.3151 18.5154 8.79325 18.482 8.27084 18.4812C7.15626 18.4812 6.34167 18.6979 5.79167 19.1479C5.24376 19.5958 4.97917 20.2271 4.97917 21.0583C4.97917 21.8396 5.17709 22.4229 5.59376 22.8208C5.99167 23.2375 6.57292 23.4375 7.33959 23.4375ZM20.6938 25.2333C20.3938 25.2333 20.1938 25.1833 20.0604 25.0667C19.9271 24.9667 19.8104 24.7333 19.7104 24.4187L15.8042 11.5625C15.7282 11.3469 15.6778 11.1232 15.6542 10.8958C15.6542 10.6292 15.7875 10.4792 16.0521 10.4792H17.6833C17.9979 10.4792 18.2146 10.5312 18.3292 10.6458C18.4646 10.7458 18.5646 10.9792 18.6625 11.2958L21.4583 22.3042L24.0521 11.2958C24.1354 10.9625 24.2354 10.7458 24.3667 10.6458C24.5666 10.5232 24.7993 10.4651 25.0333 10.4792H26.3625C26.6792 10.4792 26.8958 10.5312 27.0292 10.6458C27.1604 10.7458 27.2792 10.9792 27.3438 11.2958L29.9708 22.4375L32.8479 11.2958C32.9479 10.9625 33.0646 10.7458 33.1813 10.6458C33.3742 10.5233 33.601 10.465 33.8292 10.4792H35.3771C35.6417 10.4792 35.7938 10.6146 35.7938 10.8958C35.7938 10.9792 35.775 11.0625 35.7583 11.1625C35.7322 11.3046 35.6932 11.4441 35.6417 11.5792L31.6354 24.4333C31.5354 24.7667 31.4188 24.9812 31.2854 25.0812C31.0977 25.2017 30.8769 25.26 30.6542 25.2479H29.2229C28.9083 25.2479 28.6917 25.1979 28.5563 25.0812C28.425 24.9646 28.3083 24.7479 28.2438 24.4146L25.6646 13.6896L23.1021 24.3979C23.0188 24.7312 22.9208 24.9479 22.7896 25.0646C22.6542 25.1812 22.4208 25.2312 22.1229 25.2312L20.6938 25.2333ZM42.0604 25.6812C41.1958 25.6812 40.3313 25.5812 39.5 25.3833C38.6688 25.1833 38.0208 24.9667 37.5875 24.7167C37.3208 24.5687 37.1396 24.4021 37.0729 24.2521C37.008 24.105 36.9739 23.9462 36.9729 23.7854V22.9375C36.9729 22.5896 37.1063 22.4229 37.3542 22.4229C37.4542 22.4229 37.5542 22.4396 37.6542 22.4729C37.7542 22.5062 37.9042 22.5729 38.0708 22.6396C38.6354 22.8896 39.25 23.0875 39.9 23.2208C40.5646 23.3542 41.2125 23.4208 41.8792 23.4208C42.925 23.4208 43.7417 23.2375 44.3063 22.8708C44.5769 22.7073 44.7994 22.4751 44.9513 22.1977C45.1032 21.9204 45.1789 21.6078 45.1708 21.2917C45.1769 21.0776 45.1405 20.8644 45.0636 20.6645C44.9867 20.4646 44.8709 20.2819 44.7229 20.1271C44.4229 19.8125 43.8563 19.5292 43.0417 19.2625L40.6313 18.5125C39.4167 18.1312 38.5188 17.5667 37.9708 16.8187C37.4346 16.1285 37.1416 15.2803 37.1375 14.4062C37.1375 13.7083 37.2896 13.0937 37.5875 12.5604C37.8875 12.0292 38.2854 11.5625 38.7854 11.1979C39.2854 10.8146 39.8479 10.5312 40.5146 10.3333C41.1813 10.1333 41.8792 10.05 42.6104 10.05C42.975 10.05 43.3583 10.0667 43.725 10.1167C44.1063 10.1667 44.4542 10.2333 44.8042 10.3C45.1375 10.3833 45.4542 10.4667 45.7521 10.5646C46.0521 10.6646 46.2854 10.7646 46.4521 10.8646C46.6484 10.9634 46.8195 11.1059 46.9521 11.2812C47.0595 11.443 47.1114 11.6353 47.1 11.8292V12.6104C47.1 12.9604 46.9667 13.1437 46.7167 13.1437C46.4953 13.1184 46.281 13.0504 46.0854 12.9437C45.0808 12.4999 43.9919 12.2789 42.8938 12.2958C41.9458 12.2958 41.1958 12.4437 40.6813 12.7604C40.1646 13.0771 39.9 13.5583 39.9 14.2396C39.9 14.7062 40.0667 15.1062 40.4 15.4208C40.7313 15.7375 41.3458 16.0542 42.2271 16.3375L44.5896 17.0833C45.7854 17.4667 46.6521 18 47.1667 18.6812C47.6813 19.3625 47.9313 20.1437 47.9313 21.0083C47.9313 21.7229 47.7813 22.3729 47.5 22.9375C47.2 23.5042 46.8 24.0021 46.2854 24.4021C45.7688 24.8187 45.1542 25.1167 44.4396 25.3333C43.6896 25.5646 42.9104 25.6812 42.0604 25.6812ZM45.2042 33.7646C39.7333 37.8062 31.7833 39.95 24.95 39.95C15.3708 39.95 6.74167 36.4083 0.220839 30.5208C-0.293744 30.0562 0.170839 29.4229 0.787506 29.7896C7.83751 33.8792 16.5354 36.3583 25.5313 36.3583C31.6021 36.3583 38.2688 35.0937 44.4063 32.5C45.3208 32.0833 46.1021 33.0979 45.2042 33.7646ZM47.4833 31.1687C46.7833 30.2729 42.8583 30.7375 41.0792 30.9542C40.5479 31.0208 40.4646 30.5542 40.9479 30.2042C44.0729 28.0104 49.2125 28.6417 49.8104 29.3729C50.4083 30.1229 49.6438 35.2604 46.7167 37.7208C46.2688 38.1042 45.8354 37.9042 46.0354 37.4062C46.7021 35.7604 48.1813 32.0521 47.4833 31.1687Z" fill="white"/>
</g>
<defs>
<clipPath id="clip0_82_1736">
<rect width="50" height="50" fill="white"/>
</clipPath>
</defs>
</svg>
