<svg width="50" height="50" viewBox="0 0 50 50" fill="none" xmlns="http://www.w3.org/2000/svg">
<path d="M34.3933 35.0931C34.7006 34.0373 34.5825 33.0708 34.0698 32.3527C33.6019 31.6935 32.8104 31.3131 31.8583 31.2683L13.8183 31.0344C13.7632 31.0352 13.7089 31.022 13.6603 30.996C13.6117 30.97 13.5705 30.9321 13.5406 30.8858C13.4817 30.7983 13.4675 30.6804 13.4969 30.5623C13.5548 30.3873 13.7308 30.2531 13.921 30.2369L32.1208 30.0029C34.2773 29.901 36.621 28.1554 37.441 26.0162L38.4806 23.3052C38.5254 23.1883 38.5417 23.0702 38.5112 22.9552C37.3394 17.6504 32.605 13.6942 26.949 13.6942C21.7325 13.6942 17.3065 17.0644 15.7248 21.7387C14.6983 20.9767 13.3942 20.5669 11.9873 20.6992C9.48187 20.9471 7.47375 22.9554 7.22458 25.4608C7.16562 26.1067 7.21021 26.7375 7.35687 27.3233C3.26729 27.4396 0 30.7821 0 34.9C0 35.2642 0.0295833 35.6323 0.0733333 35.9985C0.102708 36.1714 0.249167 36.3058 0.425208 36.3058H33.7198C33.9092 36.3058 34.086 36.1714 34.1431 35.9823L34.3931 35.0931H34.3933ZM40.1367 23.5027C39.976 23.5027 39.801 23.5027 39.6402 23.526C39.5223 23.526 39.4206 23.6125 39.3756 23.7294L38.6719 26.176C38.3646 27.2319 38.4806 28.1983 38.9933 28.9185C39.4633 29.5777 40.2548 29.956 41.2069 30.0008L45.0479 30.2369C45.164 30.2369 45.2677 30.2917 45.3248 30.3833C45.3837 30.4729 45.3979 30.6071 45.3694 30.7087C45.3104 30.8837 45.1335 31.0181 44.9444 31.0323L40.9423 31.2662C38.7735 31.3679 36.446 33.1135 35.6242 35.2537L35.3312 36.0006C35.2723 36.1492 35.376 36.2956 35.5367 36.2956H49.2819C49.4425 36.2956 49.589 36.1937 49.634 36.0331C49.8677 35.1827 50 34.2894 50 33.3658C50 27.9439 45.5729 23.5179 40.1367 23.5179" fill="white"/>
</svg>
