<svg width="50" height="50" viewBox="0 0 50 50" fill="none" xmlns="http://www.w3.org/2000/svg">
<path d="M33.4062 18.7104H23.8479V0H33.4062C38.5646 0 42.7604 4.19583 42.7604 9.35417C42.7604 14.5125 38.5646 18.7104 33.4062 18.7104ZM26.9125 15.6458H33.4062C36.875 15.6458 39.6958 12.8229 39.6958 9.35625C39.6958 5.88958 36.8729 3.06667 33.4062 3.06667H26.9125V15.6458ZM26.9125 18.7104H17.3562C12.1979 18.7104 8.00208 14.5146 8.00208 9.35625C8.00208 4.19792 12.1979 0 17.3562 0H26.9146V18.7104H26.9125ZM17.3562 3.06458C13.8875 3.06458 11.0667 5.8875 11.0667 9.35417C11.0667 12.8208 13.8875 15.6458 17.3562 15.6458H23.85V3.06458H17.3562ZM26.9125 34.3542H17.3562C12.1979 34.3542 8.00208 30.1583 8.00208 25C8.00208 19.8417 12.1979 15.6458 17.3562 15.6458H26.9146V34.3542H26.9125ZM17.3562 18.7104C13.8875 18.7104 11.0667 21.5333 11.0667 25C11.0667 28.4667 13.8896 31.2896 17.3562 31.2896H23.85V18.7104H17.3562ZM17.4062 50C12.2208 50 8 45.8042 8 40.6458C8 35.4875 12.1958 31.2917 17.3542 31.2917H26.9125V40.5438C26.9125 45.7583 22.6479 50 17.4062 50ZM17.3562 34.3542C15.6888 34.3564 14.0903 35.0197 12.9113 36.1988C11.7322 37.3778 11.0689 38.9763 11.0667 40.6437C11.0667 44.1125 13.9104 46.9333 17.4083 46.9333C20.9604 46.9333 23.8521 44.0667 23.8521 40.5417V34.3542H17.3562ZM33.4062 34.3542H33.2021C28.0437 34.3542 23.8479 30.1583 23.8479 25C23.8479 19.8417 28.0437 15.6458 33.2021 15.6458H33.4062C38.5646 15.6458 42.7604 19.8417 42.7604 25C42.7604 30.1583 38.5646 34.3542 33.4062 34.3542ZM33.2042 18.7104C29.7354 18.7104 26.9146 21.5333 26.9146 25C26.9146 28.4667 29.7375 31.2896 33.2042 31.2896H33.4083C36.8771 31.2896 39.6979 28.4667 39.6979 25C39.6979 21.5333 36.875 18.7104 33.4083 18.7104H33.2042Z" fill="white"/>
</svg>
