<svg width="50" height="50" viewBox="0 0 50 50" fill="none" xmlns="http://www.w3.org/2000/svg">
<g clip-path="url(#clip0_82_1775)">
<path d="M8.10416 32.65L13.0312 0.960446C13.0666 0.725379 13.1752 0.50746 13.3416 0.337736C13.5081 0.168012 13.7238 0.0551391 13.9581 0.0151994C14.1925 -0.0247404 14.4334 0.0102898 14.6467 0.115299C14.8599 0.220309 15.0346 0.389941 15.1458 0.600029L20.4437 10.5396L8.10416 32.65ZM43.0917 40.3417L38.4042 11.175C38.372 10.9689 38.2832 10.7758 38.1476 10.6172C38.0121 10.4587 37.8351 10.3409 37.6364 10.2772C37.4378 10.2134 37.2254 10.2061 37.0228 10.2562C36.8203 10.3062 36.6357 10.4115 36.4896 10.5604L6.90833 40.3438L23.275 49.5667C23.7801 49.8505 24.3498 49.9996 24.9292 49.9996C25.5086 49.9996 26.0782 49.8505 26.5833 49.5667L43.0917 40.3417ZM29.7917 14.8896L26 7.63545C25.9043 7.45302 25.7606 7.30024 25.5843 7.19364C25.408 7.08705 25.206 7.0307 25 7.0307C24.794 7.0307 24.5919 7.08705 24.4157 7.19364C24.2394 7.30024 24.0957 7.45302 24 7.63545L7.35416 37.4667L29.7917 14.8896Z" fill="white"/>
</g>
<defs>
<clipPath id="clip0_82_1775">
<rect width="50" height="50" fill="white"/>
</clipPath>
</defs>
</svg>
