<svg width="50" height="50" viewBox="0 0 50 50" fill="none" xmlns="http://www.w3.org/2000/svg">
<path d="M25 0C11.25 0 0 11.25 0 25C0 38.75 11.25 50 25 50C38.75 50 50 38.75 50 25C50 11.25 38.75 0 25 0ZM25 5.35625C31.6062 5.35625 37.3229 8.57083 40.8937 13.3937L38.2146 15.7167C35.1792 11.6083 30.3562 8.92917 25 8.92917C18.0354 8.92917 12.1438 13.3937 9.82083 19.6437L30.3562 40.1792C35.5354 38.3937 39.4667 33.9292 40.7167 28.5708H32.1437V25H44.6437C44.6437 34.2854 38.0354 42.1417 29.2854 44.1042L5.89583 20.7167C7.85833 11.9646 15.7146 5.35417 25 5.35417V5.35625ZM5.35625 25.3562L24.8229 44.6437C19.8229 44.4646 14.8208 42.6792 11.0708 38.9292C7.32083 35.1792 5.35625 30.1771 5.35625 25.3562Z" fill="white"/>
</svg>
