<svg width="50" height="50" viewBox="0 0 50 50" fill="none" xmlns="http://www.w3.org/2000/svg">
<g clip-path="url(#clip0_82_1756)">
<path d="M49.0542 22.7708L27.2229 0.941638C25.9646 -0.314612 23.9271 -0.314612 22.6646 0.941638L18.1417 5.47289L23.8917 11.2229C25.2354 10.775 26.7646 11.0771 27.8271 12.1416C28.9021 13.2146 29.1979 14.7625 28.7396 16.1L34.2771 21.6416C35.6208 21.1771 37.1667 21.4791 38.2354 22.5479C39.7375 24.0479 39.7375 26.4729 38.2354 27.9729C36.7375 29.4708 34.3167 29.4708 32.8188 27.9729C31.6958 26.8458 31.4146 25.1875 31.9771 23.8146L26.7917 18.6562V32.25C27.1583 32.4291 27.5042 32.6729 27.8083 32.975C29.2938 34.4771 29.2938 36.8979 27.8083 38.3916C26.3104 39.8937 23.8729 39.8937 22.3729 38.3916C20.875 36.8937 20.875 34.4771 22.3729 32.9791C22.7521 32.6041 23.1792 32.3208 23.6333 32.1333V18.4062C23.1813 18.2166 22.75 17.9437 22.3833 17.5708C21.2479 16.4354 20.975 14.775 21.5583 13.3854L15.9083 7.70831L0.9375 22.6687C-0.3125 23.9291 -0.3125 25.9687 0.9375 27.2291L22.7708 49.0562C24.0292 50.3146 26.0667 50.3146 27.325 49.0562L49.0542 27.3271C50.3146 26.0708 50.3146 24.0312 49.0542 22.7708Z" fill="white"/>
</g>
<defs>
<clipPath id="clip0_82_1756">
<rect width="50" height="50" fill="white"/>
</clipPath>
</defs>
</svg>
