<svg width="50" height="50" viewBox="0 0 50 50" fill="none" xmlns="http://www.w3.org/2000/svg">
<path d="M4.41998 0.00292049C4.1656 -0.0179128 3.9031 0.0747955 3.72123 0.290837C0.933309 3.59334 0.0703924 12.5438 1.50748 17.0252C1.98248 18.5127 2.11789 20.0865 1.83393 21.6235C1.55643 23.1421 1.2731 24.9815 1.2731 26.2529C1.2731 39.3638 11.9 50 25.0002 50C38.1062 50 48.7271 39.37 48.7271 26.2529C48.7271 24.9752 48.4491 23.1421 48.1654 21.6235C47.8816 20.0865 48.0175 18.5129 48.4925 17.0252C49.9298 12.544 49.066 3.59334 46.2783 0.290837C45.9146 -0.141246 45.2298 -0.0793712 44.9277 0.395837L41.4921 5.79063C41.083 6.31104 40.4934 6.65886 39.84 6.76523C39.1867 6.8716 38.5172 6.72877 37.9641 6.365C34.2391 3.92709 29.786 2.50709 25 2.50709C20.2139 2.50709 15.7604 3.92688 12.0354 6.365C10.8881 7.11813 9.35852 6.8648 8.50748 5.79063L5.07185 0.395837C5.00106 0.284319 4.90533 0.190777 4.7922 0.122589C4.67907 0.0544019 4.55164 0.0134349 4.41998 0.00292049ZM25 7.92625C27.8062 7.92625 30.4708 8.56229 32.8575 9.69813C38.7908 12.5127 42.9787 18.4198 43.3487 25.321C43.3675 25.6481 43.3731 25.9758 43.3731 26.3092C43.3671 36.4446 35.1273 44.6913 25.0002 44.6913C14.8727 44.6913 6.63248 36.4446 6.63248 26.3092C6.63248 25.9758 6.64498 25.6481 6.65748 25.321C7.02748 18.4138 11.2154 12.5067 17.1487 9.69188C19.5291 8.55625 22.1937 7.92646 25 7.92646V7.92625ZM19.93 18.1917C19.8373 18.192 19.7463 18.2167 19.6661 18.2633C19.586 18.3099 19.5195 18.3767 19.4733 18.4571C19.3808 18.6238 19.3808 18.8269 19.4796 18.9875L23.3283 25.4692L18.1593 33.3579C18.1072 33.438 18.0774 33.5306 18.0731 33.6262C18.0688 33.7217 18.0902 33.8166 18.135 33.901C18.1797 33.9848 18.2464 34.0549 18.3278 34.1039C18.4093 34.1528 18.5025 34.1786 18.5975 34.1788H22.4708C22.559 34.1782 22.6457 34.1559 22.7232 34.1139C22.8007 34.0718 22.8666 34.0113 22.9152 33.9377L25.7087 29.5677L28.2129 33.9133C28.2586 33.9941 28.325 34.0612 28.4052 34.1079C28.4854 34.1545 28.5766 34.179 28.6693 34.1788H32.4871C32.5799 34.1797 32.6713 34.1556 32.7516 34.1089C32.8318 34.0621 32.8979 33.9946 32.9429 33.9133C33.0541 33.7467 33.0546 33.5488 32.9558 33.3823L28.2623 25.2404L24.2348 18.4508C24.1882 18.3712 24.1215 18.3053 24.0413 18.2598C23.9611 18.2143 23.8703 18.1908 23.7781 18.1917H19.93Z" fill="white"/>
</svg>
