<svg width="50" height="50" viewBox="0 0 50 50" fill="none" xmlns="http://www.w3.org/2000/svg">
<path d="M42.9375 0H7.0625C4.56042 0 2.5625 2 2.5625 4.5V45.5021C2.5625 47.9979 4.56042 50 7.0625 50H42.9375C45.4375 50 47.4354 47.9979 47.4354 45.5021V4.5C47.4375 2 45.4396 0 42.9375 0ZM44.9375 45.5021C44.9375 46.625 44.0604 47.5021 42.9375 47.5021H7.0625C5.9375 47.5021 5.0625 46.625 5.0625 45.5021V4.5C5.0625 3.375 5.9375 2.49792 7.0625 2.49792H42.9375C44.0604 2.49792 44.9375 3.375 44.9375 4.5V45.5021ZM13.8125 42.4979L19.4375 37.5L13.8125 32.5V42.4979ZM34.0625 22.25C33.0646 21.25 31.1896 20 28.0646 20C24.6875 20 21.1875 20.8771 18.6896 21.75V7.5H13.6896V29.125L17.1896 27.5C17.1896 27.5 22.9396 24.875 27.9396 24.875C30.4396 24.875 31.0646 26.25 31.0646 27.5V42.5H36.0646V27.5C36.1875 27.1271 36.1875 24.3729 34.0625 22.25ZM27.4375 15.625H32.4375C34.6875 13 35.8125 10.3729 36.1875 7.5H31.1896C30.6875 10.3729 29.4375 13 27.4375 15.625Z" fill="white"/>
</svg>
