<svg width="50" height="50" viewBox="0 0 50 50" fill="none" xmlns="http://www.w3.org/2000/svg">
<path d="M0 1V27.5771H2.47917V19.0375L3.4375 17.9396L9.99375 27.5771H12.4729L4.85417 16.3813L10.6313 9.86042H10.2771L2.47917 18.6479V1.00208L0 1ZM22.9979 9.71875C20.5187 9.71875 18.4625 10.5333 16.8313 12.1625C15.2271 13.7938 14.4229 16.0854 14.4229 19.0375C14.4229 21.9917 15.2021 24.1771 16.7604 25.5938C18.3208 27.0104 20.3396 27.7188 22.8208 27.7188C25.325 27.7188 27.3792 26.9063 28.9875 25.275C30.6167 23.6438 31.4312 21.3521 31.4312 18.4C31.4312 15.4479 30.6521 13.2625 29.0938 11.8438C27.5333 10.4271 25.5021 9.71875 22.9979 9.71875ZM41.5312 9.71875C39.3583 9.71875 37.2188 10.2021 35.1167 11.1708L35.2583 11.4208C35.8021 11.1125 36.6542 10.8042 37.8104 10.4979C38.9917 10.1667 40.0187 10.0021 40.8937 10.0021C41.7687 10.0021 42.4771 10.1208 43.0187 10.3563C43.5604 10.5688 43.9396 10.8292 44.1542 11.1354C44.3667 11.4438 44.5292 11.7604 44.65 12.0938C44.7917 12.4 44.8375 12.6604 44.7917 12.8729C44.8062 14.8938 44.7917 17.0146 44.7917 19.0729C44.2139 19.0232 43.6341 18.9996 43.0542 19.0021C42.4167 19.0021 41.7208 19.0375 40.9646 19.1083C37.9167 19.2979 35.9437 19.8167 35.0458 20.6688C34.5979 21.0938 34.325 21.4833 34.2312 21.8375C34.1354 22.1917 34.0896 22.5229 34.0896 22.8292C34.0896 23.1125 34.1125 23.3979 34.1604 23.6813C34.5625 26.3729 36.25 27.7208 39.2271 27.7208C41.7792 27.7208 43.6333 26.6688 44.7896 24.5667V25.3104C44.7896 25.6875 45.0625 26.1375 45.6063 26.6563C46.1958 27.2708 47.2937 27.5792 48.9021 27.5792H50V27.2958H48.9021L48.5125 27.225C48.2292 27.2 47.9458 27.0104 47.6604 26.6563C47.4021 26.2792 47.2708 25.7479 47.2708 25.0625V13.1917C47.2708 12.4354 46.9646 11.7146 46.35 11.0292C45.3125 9.86875 43.0917 9.72917 41.5312 9.71667V9.71875ZM23.0687 10.0021C24.8646 10.0021 26.3042 10.6875 27.3917 12.0563C28.4792 13.4271 29.0229 15.5417 29.0229 18.4C29.0229 21.2333 28.4312 23.4562 27.2521 25.0625C26.0688 26.6458 24.5812 27.4375 22.7854 27.4375C20.9896 27.4375 19.5479 26.75 18.4625 25.3813C17.375 24.0104 16.8313 21.9083 16.8313 19.0729C16.8313 16.2146 17.4229 13.9938 18.6021 12.4104C19.7854 10.8063 21.2729 10.0021 23.0687 10.0021ZM42.8417 19.2854C43.5042 19.2854 44.1542 19.3104 44.7917 19.3563V23.6438C44.7208 24.4479 44.1771 25.2875 43.1604 26.1604C42.2341 26.9867 41.0351 27.4415 39.7937 27.4375C37.9042 27.4375 36.8542 26.1854 36.6417 23.6813C36.6174 23.4689 36.6035 23.2554 36.6 23.0417C36.6 22.0021 36.8729 21.1875 37.4167 20.5979C37.9583 20.0063 39.1292 19.6042 40.925 19.3917C41.5792 19.3125 42.2583 19.3104 42.8417 19.2875V19.2854Z" fill="white"/>
</svg>
