<svg width="32" height="65" viewBox="0 0 32 65" fill="none" xmlns="http://www.w3.org/2000/svg">
<path d="M10.25 37.3V30.65H17.25C18.1167 30.65 18.9 30.4833 19.6 30.15C20.3333 29.7833 20.9167 29.25 21.35 28.55C21.7833 27.85 22 26.9833 22 25.95C22 24.9167 21.7833 24.05 21.35 23.35C20.9167 22.6167 20.3333 22.0833 19.6 21.75C18.9 21.3833 18.1167 21.2 17.25 21.2H10.25V14.55H18.8C21.0667 14.55 23.1167 15.0167 24.95 15.95C26.7833 16.85 28.2333 18.15 29.3 19.85C30.3667 21.5167 30.9 23.55 30.9 25.95C30.9 28.2833 30.3667 30.3167 29.3 32.05C28.2333 33.75 26.7833 35.05 24.95 35.95C23.1167 36.85 21.0667 37.3 18.8 37.3H10.25ZM3.15 50V14.55H12.1V50H3.15Z" fill="#FFD43B"/>
<ellipse cx="27" cy="45.1587" rx="5" ry="5.15873" fill="#FFD43B"/>
</svg>
