<svg width="28" height="28" viewBox="0 0 28 28" fill="none" xmlns="http://www.w3.org/2000/svg">
<g clip-path="url(#clip0_82_1723)">
<path d="M18.2117 14C18.2117 16.3217 16.3217 18.2117 14 18.2117C11.6783 18.2117 9.78833 16.3217 9.78833 14C9.78833 11.6783 11.6783 9.78833 14 9.78833C16.3217 9.78833 18.2117 11.6783 18.2117 14ZM14 0C6.28017 0 0 6.28017 0 14C0 21.7198 6.28017 28 14 28C16.828 28 19.5545 27.1577 21.8867 25.5652L21.9263 25.5372L20.0398 23.345L20.0083 23.3648C18.217 24.5189 16.1309 25.1318 14 25.13C7.86333 25.13 2.87 20.1367 2.87 14C2.87 7.86333 7.86333 2.87 14 2.87C20.1367 2.87 25.13 7.86333 25.13 14C25.1284 14.8043 25.0404 15.6061 24.8675 16.3917C24.5163 17.8372 23.5037 18.2793 22.7442 18.221C21.9812 18.1592 21.0875 17.6143 21.0805 16.2832V14C21.0786 12.1226 20.3321 10.3226 19.0047 8.99496C17.6773 7.66733 15.8774 6.9205 14 6.91833C12.1224 6.92019 10.3222 7.66688 8.99455 8.99455C7.66688 10.3222 6.92019 12.1224 6.91833 14C6.92019 15.8776 7.66688 17.6778 8.99455 19.0054C10.3222 20.3331 12.1224 21.0798 14 21.0817C14.9332 21.0839 15.8574 20.9002 16.7188 20.5413C17.5801 20.1823 18.3613 19.6553 19.0167 18.991C19.4309 19.6415 20.0037 20.176 20.6812 20.5444C21.3588 20.9127 22.1188 21.1028 22.89 21.0968C23.9097 21.0968 24.92 20.7562 25.7332 20.139C26.572 19.5008 27.1985 18.5803 27.545 17.4732C27.5998 17.2935 27.7025 16.8852 27.7025 16.8817L27.7048 16.8665C27.909 15.9798 28 15.0932 28 14C28 6.28017 21.7198 0 14 0" fill="white"/>
</g>
<defs>
<clipPath id="clip0_82_1723">
<rect width="28" height="28" fill="white"/>
</clipPath>
</defs>
</svg>
