<svg width="50" height="50" viewBox="0 0 50 50" fill="none" xmlns="http://www.w3.org/2000/svg">
<g clip-path="url(#clip0_82_1777)">
<path d="M1.64583 14.8333H48.3542C49.2625 14.8333 50 15.5729 50 16.4833V33.5166C50 34.425 49.2625 35.1625 48.3542 35.1625H1.64583C1.20933 35.1625 0.790708 34.9891 0.482055 34.6804C0.173401 34.3718 1.31869e-06 33.9531 1.31869e-06 33.5166V16.4833C-0.000272491 16.267 0.0420962 16.0528 0.124684 15.8528C0.207273 15.6529 0.328461 15.4712 0.481318 15.3182C0.634175 15.1651 0.815702 15.0437 1.01552 14.9609C1.21534 14.878 1.42953 14.8354 1.64583 14.8354V14.8333ZM6.86875 30.6771V24.1729L10.8063 28.1104L14.8333 24.0833V30.5875H17.0313V18.775L10.8021 25.0041L4.66667 18.8666V30.6791H6.86458V30.6771H6.86875ZM24.4521 26.8333L21.3813 23.7646L19.8271 25.3187L25.55 31.0416L31.2688 25.3187L29.7146 23.7646L26.6458 26.8333V18.5H24.45V26.8333H24.4521ZM45.3708 28.8896L40.8396 24.3583L45.4646 19.7333L43.9104 18.1791L39.2854 22.8041L34.6604 18.1791L33.1042 19.7333L37.7292 24.3583L33.1958 28.8937L34.75 30.4479L39.2854 25.9125L43.8187 30.4437L45.3708 28.8896Z" fill="white"/>
</g>
<defs>
<clipPath id="clip0_82_1777">
<rect width="50" height="50" fill="white"/>
</clipPath>
</defs>
</svg>
