<svg width="50" height="50" viewBox="0 0 50 50" fill="none" xmlns="http://www.w3.org/2000/svg">
<g clip-path="url(#clip0_82_1752)">
<path d="M35.8187 19.9062C33.1854 8.28125 26.9604 4.46042 26.2917 3C25.7083 2.17917 25.1875 1.0125 24.7604 0C24.6854 1.03125 24.6458 1.42708 23.6708 2.46667C22.1646 3.64583 14.425 10.1375 13.7958 23.3417C13.2083 35.6583 22.6917 42.9979 23.9792 43.9333L24.125 44.0375C24.3931 46.0203 24.6223 48.0082 24.8125 50H25.8146C26.0521 47.85 26.4062 45.7167 26.8771 43.6042C27.7458 42.9875 28.1354 42.6396 28.6479 42.1604C31.0749 39.9152 33.0037 37.1856 34.3096 34.1482C35.6155 31.1108 36.2695 27.8331 36.2292 24.5271C36.25 22.8312 36.0146 21.0646 35.8187 19.9062ZM24.7021 36.9792C24.7021 36.9792 24.7021 19.7062 25.275 19.7083C25.7187 19.7083 26.2958 41.9896 26.2958 41.9896C25.5021 41.8958 24.7021 38.3229 24.7021 36.9792Z" fill="white"/>
</g>
<defs>
<clipPath id="clip0_82_1752">
<rect width="50" height="50" fill="white"/>
</clipPath>
</defs>
</svg>
