<svg width="50" height="50" viewBox="0 0 50 50" fill="none" xmlns="http://www.w3.org/2000/svg">
<path d="M25 0L3.34375 12.5V37.5L25 50L46.6562 37.5V12.5L25 0ZM37.5 34.5625C37.5 36.0312 36.1542 37.25 34.3146 37.25C33 37.25 31.5 36.7187 30.5625 35.5625L18.0625 20.6854V34.5604C18.0625 36.0625 16.875 37.2479 15.4083 37.2479H15.25C13.7479 37.2479 12.5625 35.9979 12.5625 34.5604V15.4375C12.5625 13.9687 13.875 12.75 15.6875 12.75C17.0333 12.75 18.5625 13.2812 19.5 14.4375L31.9375 29.3146V15.4375C31.9375 13.9354 33.1875 12.75 34.625 12.75H34.7812C36.2812 12.75 37.4688 14 37.4688 15.4375V34.5625H37.5Z" fill="white"/>
</svg>
