<svg width="50" height="50" viewBox="0 0 50 50" fill="none" xmlns="http://www.w3.org/2000/svg">
<g clip-path="url(#clip0_82_1746)">
<path d="M24.9959 50C24.3271 50 23.6605 49.825 23.0751 49.4854L16.9584 45.8666C16.0459 45.3562 16.4917 45.175 16.7917 45.0687C18.0105 44.6458 18.2563 44.5479 19.5584 43.8104C19.6938 43.7333 19.873 43.7625 20.0126 43.8458L24.7126 46.6354C24.8834 46.7291 25.123 46.7291 25.2792 46.6354L43.6021 36.0604C43.773 35.9625 43.8813 35.7666 43.8813 35.5646V14.4187C43.8813 14.2125 43.7709 14.0187 43.5959 13.9146L25.2813 3.34789C25.1126 3.24997 24.8876 3.24997 24.7167 3.34789L6.40631 13.9166C6.22922 14.0187 6.11672 14.2187 6.11672 14.4187V35.5646C6.11672 35.7666 6.22922 35.9583 6.40631 36.0541L11.4251 38.9541C14.148 40.3166 15.8167 38.7125 15.8167 37.1V16.2229C15.8167 15.9271 16.0542 15.6958 16.3501 15.6958H18.673C18.9626 15.6958 19.2042 15.9291 19.2042 16.2229V37.1C19.2042 40.7354 17.2251 42.8187 13.7792 42.8187C12.7209 42.8187 11.8855 42.8187 9.55839 41.6708L4.75006 38.9062C3.56256 38.2208 2.82922 36.9375 2.82922 35.5646V14.4187C2.82922 13.0458 3.56464 11.7625 4.75006 11.0791L23.073 0.491638C24.2334 -0.164612 25.773 -0.164612 26.923 0.491638L45.2438 11.0791C46.4313 11.7646 47.1688 13.0458 47.1688 14.4187V35.5646C47.1688 36.9375 46.4313 38.2166 45.2438 38.9062L26.923 49.4854C26.3396 49.825 25.6751 50 24.9959 50ZM39.7896 29.1521C39.7896 25.1937 37.1146 24.1396 31.4834 23.3958C25.7938 22.6437 25.2146 22.2541 25.2146 20.9229C25.2146 19.8229 25.7042 18.3541 29.9188 18.3541C33.6834 18.3541 35.0709 19.1646 35.6417 21.7021C35.6917 21.9416 35.9105 22.1166 36.1563 22.1166H38.5334C38.6813 22.1166 38.8209 22.0521 38.9209 21.9479C39.0209 21.8354 39.0751 21.6916 39.0605 21.5396C38.6917 17.1687 35.7876 15.1312 29.9188 15.1312C24.6938 15.1312 21.5771 17.3354 21.5771 21.0333C21.5771 25.0437 24.6771 26.1521 29.6917 26.6479C35.6917 27.2354 36.1563 28.1125 36.1563 29.2916C36.1563 31.3396 34.5126 32.2125 30.6521 32.2125C25.8042 32.2125 24.7376 30.9958 24.3792 28.5833C24.3376 28.325 24.1167 28.1354 23.8521 28.1354H21.4834C21.1896 28.1354 20.9542 28.3687 20.9542 28.6625C20.9542 31.75 22.6334 35.4291 30.6521 35.4291C36.4605 35.4312 39.7896 33.1458 39.7896 29.1521Z" fill="white"/>
</g>
<defs>
<clipPath id="clip0_82_1746">
<rect width="50" height="50" fill="white"/>
</clipPath>
</defs>
</svg>
