<svg width="50" height="50" viewBox="0 0 50 50" fill="none" xmlns="http://www.w3.org/2000/svg">
<g clip-path="url(#clip0_82_1760)">
<path d="M49.0821 30.6725C49.0535 30.5852 49.0141 30.5019 48.9648 30.4244C48.6752 29.876 47.9714 29.7123 46.866 29.9408C43.4216 30.6515 42.0879 30.2142 41.6044 29.901C44.4002 25.634 46.6981 20.4802 47.94 15.6725C48.5054 13.4835 49.6029 8.33146 48.1946 5.815C48.1046 5.64276 47.9994 5.47891 47.8802 5.32542C45.1939 1.89292 41.2514 0.0516696 36.4789 0.00104459C33.365 -0.0318721 30.7071 0.722086 29.9871 0.999795C29.6304 0.933235 29.272 0.876547 28.9123 0.829795C28.0104 0.666482 27.0966 0.577434 26.1802 0.563545C23.7173 0.525211 21.5889 1.11396 19.8264 2.31479C18.0404 1.64584 9.84977 -1.11229 4.78081 2.47896C1.94977 4.48459 0.642893 8.06938 0.896226 13.134C0.981435 14.8381 1.95227 20.0798 3.48435 25.0998C4.44227 28.2383 5.43998 30.7288 6.4706 32.5623C7.62269 34.6335 8.81623 35.8817 10.0421 36.2904C10.9741 36.601 12.4019 36.5906 13.9131 34.774C15.5823 32.7667 17.2262 30.9702 17.9644 30.1763C18.8708 30.6669 19.8527 30.9315 20.8602 30.9621C20.8604 30.9649 20.8606 30.9678 20.861 30.9706C20.6856 31.1796 20.5139 31.3918 20.346 31.6069C19.64 32.5031 19.4931 32.6896 17.2206 33.1575C16.5744 33.2908 14.8573 33.6448 14.8323 34.8481C14.8271 35.1031 14.9008 35.3292 15.0237 35.529C15.4964 36.4104 16.9437 36.7992 17.1383 36.8479C19.9185 37.5427 22.3558 37.0396 24.1621 35.434C24.1266 40.0819 24.3235 44.6369 24.8816 46.0327C25.3425 47.1846 26.4687 50.0004 30.0258 50C30.5477 50 31.1223 49.9394 31.7541 49.804C35.4664 49.0079 37.0785 47.3673 37.7021 43.75C38.0152 41.936 38.5387 37.7598 38.8246 35.2058C38.8598 35.0594 38.8989 34.9544 38.9433 34.9221C38.9448 34.921 39.0885 34.824 39.8333 34.986C39.8638 34.9926 39.8946 34.9974 39.9256 35.0002L40.4546 35.0467L40.4856 35.0488C42.2498 35.1288 44.4677 34.7517 45.7589 34.1512C47.1002 33.5288 49.5208 32.0006 49.0821 30.6725ZM4.93956 24.7427C3.3906 19.6681 2.4856 14.5654 2.41393 13.1346C2.18768 8.61084 3.28289 5.46188 5.66873 3.77479C9.49518 1.06938 15.7516 2.64813 18.3937 3.50396C18.3871 3.51063 18.38 3.51667 18.3733 3.52354C14.1571 7.78188 14.2571 15.0569 14.2675 15.5017C14.2671 15.6731 14.2812 15.916 14.3012 16.2502C14.3737 17.4738 14.5087 19.751 14.1481 22.3302C13.8129 24.7269 14.5516 27.0727 16.1748 28.766C16.3427 28.9413 16.5181 29.1058 16.6994 29.2606C15.9769 30.0344 14.4069 31.7452 12.7358 33.7556C11.5531 35.1775 10.7364 34.905 10.4679 34.8154C9.65144 34.5431 8.77414 33.5923 7.88852 32.0606C6.88935 30.3127 5.88123 27.8279 4.93956 24.7427ZM17.4546 35.3408C17.0981 35.2517 16.7731 35.105 16.5541 34.9717C16.7394 34.8896 17.0487 34.7838 17.561 34.6781C20.2346 34.1279 20.6475 33.7394 21.5491 32.5944C21.7558 32.3319 21.99 32.0346 22.3144 31.6723C22.3841 31.5941 22.4365 31.5019 22.4679 31.4019C22.8237 31.0867 23.0354 31.1729 23.3781 31.315C23.7031 31.4496 24.0194 31.8567 24.1479 32.305C24.2085 32.5167 24.2769 32.9185 24.0537 33.2308C22.1698 35.8679 19.4254 35.8338 17.4546 35.3408ZM21.8171 27.0325L21.7077 27.3263C21.4306 28.0692 21.1729 28.7598 21.0131 29.4158C19.6227 29.4115 18.2698 28.8175 17.2412 27.7442C15.9331 26.3794 15.3389 24.4808 15.611 22.535C15.9919 19.8102 15.8512 17.4375 15.7756 16.1629C15.7652 15.9844 15.7558 15.8281 15.7502 15.7048C16.3662 15.1588 19.2208 13.6294 21.2562 14.0956C22.1852 14.3085 22.7512 14.9408 22.9864 16.029C24.2044 21.6619 23.1477 24.0096 22.2985 25.8962C22.1235 26.285 21.9583 26.6523 21.8171 27.0325ZM37.1581 36.5585C37.1229 36.9269 37.0835 37.3419 37.0294 37.8L36.7252 38.7131C36.701 38.7855 36.6882 38.8612 36.6873 38.9375C36.675 39.9265 36.5748 40.2894 36.4477 40.7485C36.3156 41.226 36.1658 41.7675 36.0739 42.9517C35.8448 45.8981 34.2444 47.5906 31.0381 48.2777C27.8808 48.955 27.3208 47.2427 26.8273 45.7325C26.7767 45.5742 26.7233 45.4168 26.6671 45.2604C26.2183 44.04 26.2689 42.319 26.3391 39.9373C26.3735 38.7681 26.2873 35.9763 25.6512 34.4244C25.6604 33.8135 25.6733 33.1933 25.6908 32.5665C25.6929 32.4871 25.6822 32.4078 25.6589 32.3319C25.6388 32.1854 25.6082 32.0406 25.5675 31.8985C25.3121 31.0063 24.6898 30.2598 23.9431 29.9504C23.6464 29.8275 23.1019 29.6021 22.4477 29.7694C22.5873 29.1944 22.8291 28.5454 23.0914 27.8425L23.2016 27.5467C23.3256 27.2133 23.4808 26.8681 23.6454 26.5025C24.5339 24.5283 25.7508 21.8248 24.43 15.7167C23.9354 13.429 22.2833 12.3119 19.7791 12.5713C18.2777 12.7267 16.9044 13.3325 16.2191 13.6798C16.0818 13.7494 15.9458 13.8217 15.8112 13.8967C16.0025 11.5917 16.725 7.28396 19.4273 4.55854C19.628 4.35628 19.8389 4.16437 20.0591 3.98354C20.1685 3.96222 20.2716 3.91634 20.3606 3.84938C21.9281 2.66063 23.8908 2.07729 26.1981 2.115C27.0504 2.12896 27.8683 2.18563 28.6444 2.28375C32.6839 3.02209 35.4025 5.29792 37.0525 7.24771C38.7489 9.2525 39.6675 11.2717 40.0341 12.3608C37.2775 12.0804 35.4021 12.625 34.4514 13.9838C32.3835 16.9398 35.5827 22.6773 37.1204 25.4346C37.4023 25.94 37.6458 26.3767 37.7223 26.5623C38.2229 27.7758 38.8712 28.5858 39.3446 29.1773C39.4896 29.3585 39.6304 29.5344 39.7373 29.6877C38.9023 29.9283 37.4023 30.4846 37.5389 33.2648C37.5133 33.5904 37.4508 34.1958 37.3652 34.9623C37.2691 35.395 37.2189 35.9213 37.1581 36.5585ZM39.0133 33.1813C38.9289 31.4488 39.5739 31.2677 40.2564 31.076C40.3509 31.0502 40.4446 31.022 40.5377 30.9915C40.6257 31.0695 40.7192 31.1412 40.8173 31.206C42.0054 31.9904 44.1137 32.0838 47.0814 31.486C46.6614 31.8546 46.0004 32.3181 45.0954 32.7383C44.2416 33.1348 42.8127 33.4321 41.4552 33.4958C39.9558 33.5658 39.1929 33.3277 39.0133 33.1813ZM40.1998 13.8663C40.1875 14.5971 40.0869 15.2604 39.9802 15.9531C39.8656 16.6981 39.7469 17.4685 39.7169 18.4035C39.6873 19.3135 39.801 20.2596 39.911 21.1746C40.1331 23.0225 40.361 24.9252 39.4787 26.8025C39.3323 26.5429 39.2018 26.2746 39.0879 25.9992C38.9781 25.7333 38.7402 25.3063 38.4106 24.7154C37.1281 22.4152 34.1244 17.0288 35.6621 14.8308C36.4527 13.7002 38.4554 13.6515 40.1998 13.8663ZM40.6756 28.4781C40.6168 28.4032 40.5575 28.3286 40.4979 28.2544L40.4239 28.1619C41.9369 25.6629 41.641 23.1906 41.3777 20.9983C41.2696 20.0988 41.1675 19.2492 41.1933 18.4513C41.2202 17.6052 41.3321 16.8798 41.4402 16.1781C41.5733 15.3135 41.7085 14.4192 41.6712 13.3646C41.6991 13.254 41.7104 13.1233 41.6958 12.9683C41.6006 11.9569 40.446 8.93084 38.0929 6.19125C36.8271 4.71771 34.9896 3.07209 32.491 1.94229C33.585 1.72021 35.0594 1.51834 36.7085 1.555C40.9825 1.65 44.3639 3.24979 46.7589 6.31C46.8098 6.37644 46.8562 6.44617 46.8979 6.51875C48.4044 9.34292 46.3225 19.5919 40.6756 28.4781ZM22.3077 15.736C22.2556 16.1098 21.6641 16.6163 21.0137 16.6163C20.9573 16.6163 20.901 16.6124 20.8452 16.6046C20.455 16.5504 20.0608 16.3046 19.7912 15.9471C19.6958 15.821 19.5406 15.5763 19.5714 15.3546C19.5829 15.271 19.6258 15.1494 19.7641 15.0446C20.0104 14.8583 20.4971 14.7892 21.0341 14.864C21.6931 14.9558 22.3729 15.2677 22.3077 15.736ZM38.8296 14.879C38.8527 15.044 38.7275 15.2977 38.5106 15.5252C38.3683 15.6746 38.0689 15.9338 37.6608 15.9902C37.609 15.9974 37.5568 16.001 37.5046 16.001C36.8931 16.001 36.3766 15.5127 36.3364 15.2267C36.2864 14.859 36.8866 14.5796 37.5054 14.4933C38.1241 14.4071 38.7785 14.5117 38.8296 14.879Z" fill="white"/>
</g>
<defs>
<clipPath id="clip0_82_1760">
<rect width="50" height="50" fill="white"/>
</clipPath>
</defs>
</svg>
