<svg width="50" height="50" viewBox="0 0 50 50" fill="none" xmlns="http://www.w3.org/2000/svg">
<path d="M28.1811 0.206043C14.4895 -1.55021 1.96239 8.12479 0.20614 21.8185C-1.55011 35.5102 8.12281 48.0352 21.8166 49.7935C35.5103 51.5498 48.0395 41.8748 49.7916 28.181C51.5499 14.4894 41.877 1.96438 28.1811 0.206043ZM33.3291 15.7998C32.8651 15.8059 32.4219 15.9927 32.0936 16.3206L22.8166 25.5977L22.177 24.9581L20.8374 23.6185C29.9811 14.5019 31.6291 14.4144 33.3291 15.7998ZM23.1978 25.9269L32.4478 16.6769C32.569 16.5497 32.715 16.4486 32.8766 16.3798C33.0382 16.311 33.2122 16.2758 33.3879 16.2766C33.5636 16.2773 33.7373 16.3138 33.8984 16.384C34.0595 16.4541 34.2045 16.5564 34.3247 16.6846C34.4449 16.8127 34.5377 16.964 34.5974 17.1292C34.6571 17.2945 34.6825 17.4702 34.672 17.6455C34.6615 17.8209 34.6153 17.9923 34.5363 18.1492C34.4572 18.3061 34.347 18.4453 34.2124 18.5581L24.4228 27.1519L23.1978 25.9269ZM23.8853 27.3727L21.5936 27.8685C21.5663 27.8747 21.5376 27.8715 21.5123 27.8594C21.487 27.8473 21.4665 27.827 21.4541 27.8019C21.4401 27.7778 21.4346 27.7498 21.4384 27.7223C21.4422 27.6947 21.455 27.6692 21.4749 27.6498L22.8186 26.306L23.8853 27.3727ZM18.0457 26.4165L20.4874 23.9748L22.3186 25.804L18.1957 26.6915C18.1614 26.7004 18.125 26.6972 18.0927 26.6824C18.0605 26.6675 18.0343 26.6421 18.0186 26.6102C17.9992 26.58 17.9913 26.5439 17.9963 26.5083C18.0012 26.4728 18.0188 26.4402 18.0457 26.4165ZM10.4499 39.0373C10.4291 39.0355 10.4088 39.0295 10.3903 39.0198C10.3718 39.0101 10.3554 38.9969 10.342 38.9808C10.3286 38.9647 10.3186 38.9461 10.3124 38.9262C10.3063 38.9062 10.3041 38.8852 10.3061 38.8644C10.3101 38.8282 10.3263 38.7944 10.352 38.7685H10.3561L12.327 36.7977L14.8728 39.3435L10.4499 39.0373ZM15.502 36.4206C15.4075 36.4694 15.3322 36.5485 15.288 36.6452C15.2438 36.7419 15.2333 36.8506 15.2582 36.954L15.6811 38.756C15.6948 38.8116 15.6898 38.87 15.6669 38.9224C15.644 38.9748 15.6046 39.0183 15.5546 39.046C15.5045 39.0737 15.4468 39.0842 15.3902 39.0759C15.3337 39.0675 15.2814 39.0408 15.2416 38.9998H15.2353L13.2895 37.054L12.677 36.4394L20.5145 28.6102L24.3061 27.7915L26.127 29.6123C23.5124 31.9081 19.9374 34.1977 15.502 36.4206ZM26.4999 29.279H26.4957L24.7478 27.531L34.5374 18.9373C34.6279 18.8569 34.7109 18.7683 34.7853 18.6727C34.477 21.4748 30.5582 25.4331 26.4999 29.279ZM34.1186 15.8206L34.1124 15.8165C33.4236 15.1244 33.028 14.1935 33.0078 13.2172C32.9876 12.241 33.3444 11.2946 34.004 10.5746C34.6636 9.85465 35.5753 9.41656 36.5496 9.35142C37.5238 9.28627 38.4857 9.59906 39.2353 10.2248L35.8811 13.5852C35.8579 13.6083 35.8395 13.6357 35.8269 13.6659C35.8143 13.6961 35.8078 13.7285 35.8078 13.7613C35.8078 13.794 35.8143 13.8264 35.8269 13.8566C35.8395 13.8868 35.8579 13.9142 35.8811 13.9373L38.4791 16.5352C37.769 16.8877 36.9661 17.0083 36.1838 16.8801C35.4014 16.7519 34.6791 16.3813 34.1186 15.8206ZM39.4895 15.8206C39.3172 15.9908 39.128 16.1429 38.9249 16.2748H38.9228L36.4082 13.7602L39.602 10.5665C40.9791 12.0665 40.9291 14.3831 39.4895 15.8206ZM39.2811 12.604C39.2311 12.6403 39.1935 12.6913 39.1737 12.7499C39.1539 12.8085 39.1529 12.8718 39.1707 12.931C39.2449 13.0813 39.274 13.2498 39.2544 13.4161C39.2348 13.5825 39.1674 13.7397 39.0603 13.8685C39.0364 13.8986 39.0187 13.9331 39.0082 13.97C38.9977 14.0069 38.9946 14.0456 38.9991 14.0837C39.0035 14.1218 39.0154 14.1587 39.0342 14.1922C39.0529 14.2257 39.0781 14.2552 39.1082 14.279C39.1583 14.3182 39.2197 14.3401 39.2832 14.3415C39.3254 14.3411 39.3669 14.3316 39.4051 14.3136C39.4432 14.2956 39.477 14.2696 39.5041 14.2373C39.683 14.0223 39.7954 13.7598 39.8276 13.482C39.8598 13.2041 39.8104 12.9229 39.6853 12.6727C39.6635 12.6414 39.6357 12.6147 39.6034 12.5943C39.5712 12.5739 39.5353 12.56 39.4976 12.5536C39.46 12.5472 39.4215 12.5484 39.3843 12.557C39.3472 12.5657 39.3121 12.5816 39.2811 12.604Z" fill="white"/>
</svg>
