<svg width="50" height="50" viewBox="0 0 50 50" fill="none" xmlns="http://www.w3.org/2000/svg">
<g clip-path="url(#clip0_82_1781)">
<path d="M45.4308 38.0933L28.235 1.57601C27.8037 0.663098 26.9037 0.0608059 25.8837 0.00497258C24.8373 -0.0560691 23.8998 0.448723 23.3708 1.30768L4.7208 31.5148C4.14309 32.456 4.15455 33.6171 4.75372 34.5471L13.8702 48.6691C14.4135 49.5121 15.355 50 16.3333 50C16.6108 50 16.8896 49.9608 17.1639 49.8798L43.6262 42.0531C44.4368 41.8133 45.0996 41.2398 45.4464 40.4796C45.7933 39.7194 45.7866 38.8487 45.4308 38.0933ZM41.5806 39.6598L19.1279 46.3004C18.4421 46.5035 17.7846 45.9102 17.9287 45.2183L25.9498 6.80456C26.0998 6.08622 27.0927 5.97206 27.406 6.63726L42.2577 38.1748C42.5377 38.7698 42.2181 39.4714 41.5806 39.6598Z" fill="white"/>
</g>
<defs>
<clipPath id="clip0_82_1781">
<rect width="50" height="50" fill="white"/>
</clipPath>
</defs>
</svg>
