<svg width="50" height="50" viewBox="0 0 50 50" fill="none" xmlns="http://www.w3.org/2000/svg">
<g clip-path="url(#clip0_82_1742)">
<path d="M34.6541 34.3834C36.4666 34.2271 37.8687 32.6334 37.7791 30.7292C37.6812 28.825 36.1208 27.2959 34.2187 27.2959H34.0916C33.1477 27.3295 32.2558 27.7367 31.612 28.4278C30.9681 29.1188 30.6251 30.0373 30.6583 30.9813C30.7208 31.9792 31.1291 32.7917 31.6875 33.3834C29.5041 37.6292 26.2271 40.75 21.2604 43.3729C17.9208 45.1188 14.3937 45.7771 10.9604 45.3104C8.08955 44.9042 5.84372 43.6229 4.46872 41.5625C2.41039 38.4396 2.22289 35.0709 3.93747 31.7C5.18747 29.2625 7.06039 27.4854 8.31039 26.6104C7.93303 25.5641 7.64042 24.4891 7.43539 23.3959C-1.80836 30.0167 -0.866696 39.0667 1.94164 43.3438C4.0333 46.4646 8.31039 48.4604 12.9916 48.4604C14.2416 48.4604 15.5541 48.3688 16.8312 48.0563C24.95 46.4959 31.0979 41.6271 34.625 34.4479L34.6541 34.3834ZM45.7958 26.5792C40.9625 20.8959 33.8416 17.775 25.725 17.775H24.6625C24.1354 16.6209 22.9187 15.9021 21.5416 15.9021H21.4479C19.4833 15.9021 17.9521 17.5896 18.0166 19.5542C18.0791 21.425 19.6708 22.9875 21.575 22.9875H21.7291C22.4045 22.9614 23.0581 22.7415 23.6119 22.354C24.1657 21.9664 24.5962 21.4277 24.8521 20.8021H26.0083C30.8187 20.8021 35.3729 22.2063 39.525 24.9521C42.7062 27.0459 44.9875 29.7917 46.2687 33.0709C47.3896 35.7542 47.3291 38.3771 46.175 40.5646C44.3937 43.9959 41.3958 45.8084 37.4333 45.8084C34.9354 45.8084 32.5021 45.0271 31.2521 44.4667C30.5021 45.0875 29.2521 46.1188 28.3479 46.7438C31.0937 47.9896 33.8729 48.7084 36.5562 48.7084C42.6437 48.7084 47.1687 45.2771 48.8875 41.9667C50.7583 38.2209 50.6041 31.9167 45.825 26.5167L45.7958 26.5792ZM13.5208 35.5042C13.5833 37.3771 15.1729 38.9375 17.0791 38.9375H17.2041C17.6733 38.9269 18.1355 38.8226 18.5637 38.6306C18.9919 38.4386 19.3773 38.1628 19.6972 37.8196C20.0172 37.4763 20.2652 37.0725 20.4267 36.6319C20.5882 36.1913 20.6598 35.7229 20.6375 35.2542C20.6375 33.3792 19.0146 31.8229 17.1104 31.8229H16.9854C16.8604 31.8229 16.6729 31.8229 16.5146 31.8834C13.925 27.5125 12.8312 22.8271 13.2396 17.775C13.4896 13.9667 14.7396 10.6563 16.9833 7.91044C18.8583 5.56877 22.3854 4.41044 24.7896 4.3521C31.5312 4.22502 34.3416 12.625 34.5583 15.9646L37.6791 16.9021C36.9604 6.66044 30.5958 1.29169 24.5083 1.29169C18.7916 1.29169 13.5208 5.44377 11.3958 11.5313C8.49372 19.6459 10.3979 27.4521 13.9583 33.6959C13.6458 34.1021 13.4583 34.8188 13.5208 35.5042Z" fill="white"/>
</g>
<defs>
<clipPath id="clip0_82_1742">
<rect width="50" height="50" fill="white"/>
</clipPath>
</defs>
</svg>
