<svg width="50" height="50" viewBox="0 0 50 50" fill="none" xmlns="http://www.w3.org/2000/svg">
<g clip-path="url(#clip0_82_1754)">
<path d="M16.0083 0V16.7396H32.2062C32.7895 16.7396 33.252 17.2312 33.252 17.7458V34H49.9708V1.04583C49.9708 0.768461 49.8606 0.502449 49.6645 0.306317C49.4683 0.110186 49.2023 0 48.925 0L16.0083 0ZM14.9666 1.04167L0.179131 15.8479C0.106281 15.9212 0.0567589 16.0144 0.0368149 16.1157C0.0168708 16.2171 0.0273982 16.3221 0.0670687 16.4175C0.106739 16.5129 0.173775 16.5944 0.259717 16.6517C0.345659 16.709 0.446657 16.7396 0.549965 16.7396H14.9666V1.04167ZM16.0083 17.7812V32.9542C16.0083 33.5333 16.475 34 17.0541 34H32.2104V18.7875C32.2104 18.2083 31.7437 17.7833 31.1645 17.7812H16.0083ZM33.252 35.0417V49.475C33.252 49.9417 33.8166 50.175 34.1479 49.8458L48.9291 35.0417H33.252Z" fill="white"/>
</g>
<defs>
<clipPath id="clip0_82_1754">
<rect width="50" height="50" fill="white"/>
</clipPath>
</defs>
</svg>
