<svg width="50" height="50" viewBox="0 0 50 50" fill="none" xmlns="http://www.w3.org/2000/svg">
<path d="M29.1166 19.0625C24.5916 17.3833 22.1249 16.0917 22.1249 14.0437C22.1249 12.3125 23.5478 11.325 26.0853 11.325C30.7249 11.325 35.4916 13.1125 38.7728 14.7229L40.627 3.27708C38.0249 2.03125 32.702 0 25.3436 0C20.1395 0 15.8103 1.3625 12.7166 3.9C9.49989 6.55625 7.82697 10.4 7.82697 15.0375C7.82697 23.4521 12.9666 27.0375 21.3186 30.0771C26.7041 31.9937 28.4957 33.3563 28.4957 35.4583C28.4957 37.5 26.7457 38.6771 23.5916 38.6771C19.6853 38.6771 13.2478 36.7583 9.02905 34.2833L7.15405 45.8562C10.7811 47.8958 17.4686 50 24.4041 50C29.9061 50 34.4936 48.7 37.5874 46.2229C41.0541 43.5042 42.8478 39.4812 42.8478 34.2812C42.8478 25.6812 37.5895 22.0917 29.1103 19.0625H29.1166Z" fill="white"/>
</svg>
