<svg width="50" height="50" viewBox="0 0 50 50" fill="none" xmlns="http://www.w3.org/2000/svg">
<g clip-path="url(#clip0_82_1748)">
<path d="M25.0021 10C18.3354 10 14.1687 13.3333 12.5021 20C15.0021 16.6667 17.9187 15.4167 21.2521 16.25C23.1542 16.725 24.5125 18.1042 26.0187 19.6333C28.4708 22.1208 31.3062 25 37.5021 25C44.1687 25 48.3354 21.6667 50.0021 15C47.5021 18.3333 44.5854 19.5833 41.2521 18.75C39.35 18.275 37.9917 16.8958 36.4854 15.3667C34.0354 12.8792 31.2 10 25.0021 10ZM12.5021 25C5.83541 25 1.66874 28.3333 0.0020752 35C2.50208 31.6667 5.41874 30.4167 8.75208 31.25C10.6542 31.725 12.0125 33.1042 13.5187 34.6333C15.9708 37.1208 18.8062 40 25.0021 40C31.6687 40 35.8354 36.6667 37.5021 30C35.0021 33.3333 32.0854 34.5833 28.7521 33.75C26.85 33.275 25.4917 31.8958 23.9854 30.3667C21.5354 27.8792 18.7 25 12.5021 25Z" fill="white"/>
</g>
<defs>
<clipPath id="clip0_82_1748">
<rect width="50" height="50" fill="white"/>
</clipPath>
</defs>
</svg>
