<svg width="28" height="24" viewBox="0 0 28 24" fill="none" xmlns="http://www.w3.org/2000/svg">
<path d="M25.0589 5.79081C25.0758 6.03581 25.0758 6.28081 25.0758 6.52807C25.0758 14.0621 19.3403 22.7511 8.85275 22.7511V22.7466C5.75469 22.7511 2.72098 21.8637 0.112915 20.1905C0.563399 20.2447 1.01614 20.2718 1.47001 20.2729C4.03743 20.2752 6.53146 19.4137 8.5513 17.8274C6.11146 17.7811 3.97195 16.1903 3.22453 13.8679C4.07921 14.0327 4.95985 13.9989 5.79872 13.7697C3.13872 13.2323 1.22501 10.8952 1.22501 8.18097C1.22501 8.15613 1.22501 8.13242 1.22501 8.10871C2.01759 8.55016 2.90501 8.79516 3.81275 8.82226C1.30743 7.1479 0.535173 3.815 2.04808 1.20919C4.94291 4.77129 9.21404 6.93678 13.799 7.16597C13.3395 5.18565 13.9673 3.11049 15.4486 1.71839C17.745 -0.440321 21.3568 -0.329676 23.5155 1.96565C24.7924 1.71387 26.0163 1.24532 27.1363 0.581453C26.7107 1.90129 25.8198 3.02242 24.6298 3.73484C25.76 3.60161 26.8642 3.29903 27.904 2.83726C27.1386 3.98436 26.1744 4.98355 25.0589 5.79081Z" fill="white"/>
</svg>
